<?xml version="1.0" encoding="UTF-8"?>
<svg id="Layer_1" data-name="Layer 1" xmlns="http://www.w3.org/2000/svg" xmlns:xlink="http://www.w3.org/1999/xlink" viewBox="0 0 205.78 233.75">
  <defs>
    <style>
      .cls-1 {
        fill: url(#linear-gradient);
      }

      .cls-1, .cls-2, .cls-3, .cls-4, .cls-5, .cls-6, .cls-7, .cls-8, .cls-9, .cls-10, .cls-11 {
        stroke: #010101;
        stroke-miterlimit: 10;
        stroke-width: 3px;
      }

      .cls-2 {
        fill: url(#linear-gradient-5);
      }

      .cls-3 {
        fill: url(#linear-gradient-6);
      }

      .cls-4 {
        fill: url(#linear-gradient-3);
      }

      .cls-5 {
        fill: url(#linear-gradient-7);
      }

      .cls-6 {
        fill: #010101;
      }

      .cls-7 {
        fill: url(#linear-gradient-4);
      }

      .cls-8 {
        fill: #d78fbe;
      }

      .cls-9 {
        fill: #fff;
      }

      .cls-10 {
        fill: #6873b6;
      }

      .cls-11 {
        fill: url(#linear-gradient-2);
      }
    </style>
    <linearGradient id="linear-gradient" x1="23.55" y1="293.66" x2="70.54" y2="-23.14" gradientUnits="userSpaceOnUse">
      <stop offset="0" stop-color="#d78fbe"/>
      <stop offset=".09" stop-color="#cc8cbd" stop-opacity=".9"/>
      <stop offset=".53" stop-color="#967eb9" stop-opacity=".42"/>
      <stop offset=".84" stop-color="#7576b6" stop-opacity=".12"/>
      <stop offset=".99" stop-color="#6873b6" stop-opacity="0"/>
    </linearGradient>
    <linearGradient id="linear-gradient-2" x1="76.46" y1="301.51" x2="123.45" y2="-15.29" xlink:href="#linear-gradient"/>
    <linearGradient id="linear-gradient-3" x1="140.97" y1="311.08" x2="187.96" y2="-5.72" xlink:href="#linear-gradient"/>
    <linearGradient id="linear-gradient-4" x1="166.77" y1="314.91" x2="213.76" y2="-1.89" xlink:href="#linear-gradient"/>
    <linearGradient id="linear-gradient-5" x1="-28.65" y1="340.18" x2="18.34" y2="23.38" xlink:href="#linear-gradient"/>
    <linearGradient id="linear-gradient-6" x1="173.13" y1="315.85" x2="220.12" y2="-.95" xlink:href="#linear-gradient"/>
    <linearGradient id="linear-gradient-7" x1="16.53" y1="292.62" x2="61.03" y2="-7.38" xlink:href="#linear-gradient"/>
  </defs>
  <g>
    <path class="cls-6" d="M103.21,1.5C61.1,1.5,25.63,37.26,14.98,85.93c9.22,1.63,22.13,2.69,36.73-.43,23.89-5.11,28.09-16.26,47-17,18.35-.72,23.18,9.43,46,14,17.92,3.59,33.91,1.13,45.43-1.98C178.12,34.63,143.74,1.5,103.21,1.5ZM47.71,72.5c-3.87,0-7-3.13-7-7s3.13-7,7-7,7,3.13,7,7-3.13,7-7,7Zm56-13c-3.87,0-7-3.13-7-7s3.13-7,7-7,7,3.13,7,7-3.13,7-7,7Zm64,13c-3.87,0-7-3.13-7-7s3.13-7,7-7,7,3.13,7,7-3.13,7-7,7Z"/>
    <circle class="cls-6" cx="47.71" cy="65.5" r="7"/>
    <circle class="cls-6" cx="103.71" cy="52.5" r="7"/>
    <circle class="cls-6" cx="167.71" cy="65.5" r="7"/>
    <path class="cls-6" d="M183.47,171.77c-15.56,35.6-45.67,59.73-80.26,59.73s-62.5-22.41-78.5-55.89c10.72,1.19,25.65,1.36,41.29-4.11,21.33-7.45,26.35-19.23,42.3-19,13.43,.19,16.72,8.64,35.62,15,14.91,5.03,29.04,5.21,39.55,4.27Z"/>
    <path class="cls-6" d="M194.71,116.5c0,20.04-4.07,38.87-11.24,55.27-10.51,.94-24.64,.76-39.55-4.27-18.9-6.36-22.19-14.81-35.62-15-15.95-.23-20.97,11.55-42.3,19-15.64,5.47-30.57,5.3-41.29,4.11-8.26-17.27-13-37.49-13-59.11,0-10.59,1.14-20.84,3.27-30.57,9.22,1.63,22.13,2.69,36.73-.43,23.89-5.11,28.09-16.26,47-17,18.35-.72,23.18,9.43,46,14,17.92,3.59,33.91,1.13,45.43-1.98,2.97,11.31,4.57,23.41,4.57,35.98Z"/>
    <path class="cls-6" d="M193.71,79.5c-1.14,.34-2.33,.69-3.57,1.02"/>
    <path class="cls-6" d="M14.98,85.93c-.78-.14-1.54-.29-2.27-.43"/>
    <path class="cls-6" d="M13.04,113.27c9.3,1.85,23.16,3.39,39,0,23.89-5.11,28.09-16.26,47-17,18.35-.72,23.18,9.43,46,14,19.86,3.98,37.34,.53,49-3"/>
    <path class="cls-6" d="M186.21,171.5c-.88,.1-1.79,.19-2.74,.27"/>
    <path class="cls-6" d="M24.71,175.61c-.34-.03-.67-.07-1-.11"/>
    <path class="cls-6" d="M40.21,199.2c8.56,1.29,20.77,1.65,33.58-4.03,16.93-7.5,20.91-19.35,33.58-19.12,10.67,.19,13.28,8.69,28.27,15.09,12.91,5.51,25.06,5.23,33.58,4.03"/>
    <polygon class="cls-6" points="40.21 124 46.09 135.91 59.24 137.82 49.72 147.09 51.97 160.18 40.21 154 28.46 160.18 30.7 147.09 21.19 137.82 34.34 135.91 40.21 124"/>
    <polygon class="cls-6" points="103.61 108.99 109.49 120.9 122.64 122.81 113.12 132.08 115.37 145.17 103.61 138.99 91.86 145.17 94.1 132.08 84.59 122.81 97.74 120.9 103.61 108.99"/>
    <polygon class="cls-6" points="167.61 120.99 173.49 132.9 186.64 134.81 177.12 144.08 179.37 157.17 167.61 150.99 155.86 157.17 158.1 144.08 148.59 134.81 161.74 132.9 167.61 120.99"/>
    <circle class="cls-6" cx="47.71" cy="65.5" r="7"/>
    <circle class="cls-6" cx="103.71" cy="52.5" r="7"/>
    <circle class="cls-6" cx="167.71" cy="65.5" r="7"/>
  </g>
  <path class="cls-10" d="M112.78,2.25C70.67,2.25,35.2,38.01,24.55,86.68c9.22,1.63,22.13,2.69,36.73-.43,23.89-5.11,28.09-16.26,47-17,18.35-.72,23.18,9.43,46,14,17.92,3.59,33.91,1.13,45.43-1.98C187.69,35.38,153.31,2.25,112.78,2.25ZM57.28,73.25c-3.87,0-7-3.13-7-7s3.13-7,7-7,7,3.13,7,7-3.13,7-7,7Zm56-13c-3.87,0-7-3.13-7-7s3.13-7,7-7,7,3.13,7,7-3.13,7-7,7Zm64,13c-3.87,0-7-3.13-7-7s3.13-7,7-7,7,3.13,7,7-3.13,7-7,7Z"/>
  <circle class="cls-1" cx="57.28" cy="66.25" r="7"/>
  <circle class="cls-11" cx="113.28" cy="53.25" r="7"/>
  <circle class="cls-4" cx="177.28" cy="66.25" r="7"/>
  <path class="cls-10" d="M193.04,172.52c-15.56,35.6-45.67,59.73-80.26,59.73s-62.5-22.41-78.5-55.89c10.72,1.19,25.65,1.36,41.29-4.11,21.33-7.45,26.35-19.23,42.3-19,13.43,.19,16.72,8.64,35.62,15,14.91,5.03,29.04,5.21,39.55,4.27Z"/>
  <path class="cls-8" d="M204.28,117.25c0,20.04-4.07,38.87-11.24,55.27-10.51,.94-24.64,.76-39.55-4.27-18.9-6.36-22.19-14.81-35.62-15-15.95-.23-20.97,11.55-42.3,19-15.64,5.47-30.57,5.3-41.29,4.11-8.26-17.27-13-37.49-13-59.11,0-10.59,1.14-20.84,3.27-30.57,9.22,1.63,22.13,2.69,36.73-.43,23.89-5.11,28.09-16.26,47-17,18.35-.72,23.18,9.43,46,14,17.92,3.59,33.91,1.13,45.43-1.98,2.97,11.31,4.57,23.41,4.57,35.98Z"/>
  <path class="cls-7" d="M203.28,80.25c-1.14,.34-2.33,.69-3.57,1.02"/>
  <path class="cls-2" d="M2.55,137.68c-.78-.14-1.54-.29-2.27-.43"/>
  <path class="cls-8" d="M22.61,114.03c9.3,1.85,23.16,3.39,39,0,23.89-5.11,28.09-16.26,47-17,18.35-.72,23.18,9.43,46,14,19.86,3.98,37.34,.53,49-3"/>
  <path class="cls-3" d="M195.78,172.25c-.88,.1-1.79,.19-2.74,.27"/>
  <path class="cls-5" d="M34.28,176.36c-.34-.03-.67-.07-1-.11"/>
  <path class="cls-10" d="M49.78,199.96c8.56,1.29,20.77,1.65,33.58-4.03,16.93-7.5,20.91-19.35,33.58-19.12,10.67,.19,13.28,8.69,28.27,15.09,12.91,5.51,25.06,5.23,33.58,4.03"/>
  <polygon class="cls-9" points="49.78 124.75 55.66 136.66 68.8 138.57 59.29 147.84 61.54 160.93 49.78 154.75 38.03 160.93 40.27 147.84 30.76 138.57 43.9 136.66 49.78 124.75"/>
  <polygon class="cls-9" points="113.18 109.74 119.06 121.65 132.2 123.56 122.69 132.83 124.94 145.92 113.18 139.74 101.43 145.92 103.67 132.83 94.16 123.56 107.3 121.65 113.18 109.74"/>
  <polygon class="cls-9" points="177.18 121.74 183.06 133.65 196.2 135.56 186.69 144.83 188.94 157.92 177.18 151.74 165.43 157.92 167.67 144.83 158.16 135.56 171.3 133.65 177.18 121.74"/>
  <circle class="cls-9" cx="57.28" cy="66.25" r="7"/>
  <circle class="cls-9" cx="113.28" cy="53.25" r="7"/>
  <circle class="cls-9" cx="177.28" cy="66.25" r="7"/>
</svg>