<?xml version="1.0" encoding="UTF-8"?>
<svg id="Layer_1" data-name="Layer 1" xmlns="http://www.w3.org/2000/svg" viewBox="0 0 272.07 280.51">
  <defs>
    <style>
      .cls-1, .cls-2, .cls-3 {
        stroke-width: 3px;
      }

      .cls-1, .cls-2, .cls-3, .cls-4, .cls-5 {
        stroke: #010101;
        stroke-miterlimit: 10;
      }

      .cls-1, .cls-5 {
        fill: none;
      }

      .cls-2, .cls-6 {
        fill: #fedf34;
      }

      .cls-3, .cls-4, .cls-7 {
        fill: #010101;
      }

      .cls-4, .cls-5 {
        stroke-width: 2px;
      }

      .cls-8 {
        fill: #fed61c;
      }
    </style>
  </defs>
  <g>
    <polygon class="cls-7" points="41.1 45.89 100.77 69.96 56.58 108.35 41.1 45.89"/>
    <path class="cls-7" d="M42.54,47.55l56.34,22.73-41.72,36.24-14.62-58.97m-2.88-3.32l16.34,65.94,46.66-40.53-63-25.41h0Z"/>
  </g>
  <g>
    <polygon class="cls-7" points="100.02 68.85 129.28 11.55 158.55 68.85 100.02 68.85"/>
    <path class="cls-7" d="M129.28,13.75l27.63,54.1h-55.27s27.63-54.1,27.63-54.1m0-4.4l-30.9,60.5h61.8s-30.9-60.5-30.9-60.5h0Z"/>
  </g>
  <g>
    <polygon class="cls-7" points="2.2 133.84 60.87 107.44 57.98 165.91 2.2 133.84"/>
    <path class="cls-7" d="M59.79,109.03l-2.73,55.2L4.39,133.95l55.4-24.93m2.16-3.16L0,133.73l58.9,33.85,3.06-61.73h0Z"/>
  </g>
  <g>
    <polygon class="cls-7" points="51.96 166.78 84.46 215.47 20.55 222.94 51.96 166.78"/>
    <path class="cls-7" d="M52.04,168.7l30.69,45.97-60.34,7.06,29.66-53.02m-.15-3.83l-33.16,59.29,67.47-7.89-34.31-51.4h0Z"/>
  </g>
  <g>
    <polygon class="cls-7" points="79.26 215.91 136.26 229.22 94.74 278.37 79.26 215.91"/>
    <path class="cls-7" d="M80.62,217.26l53.82,12.56-39.2,46.41-14.62-58.97m-2.73-2.69l16.34,65.94,43.84-51.9-60.18-14.04h0Z"/>
  </g>
  <g>
    <polygon class="cls-7" points="135.5 232.93 188.88 208.92 185.7 273.18 135.5 232.93"/>
    <path class="cls-7" d="M187.8,210.5l-3,60.68-47.4-38,50.4-22.67m2.16-3.16l-56.36,25.36,53,42.5,3.36-67.85h0Z"/>
  </g>
  <g>
    <polygon class="cls-7" points="186.4 213.44 215.66 162.75 250.66 216.75 186.4 213.44"/>
    <path class="cls-7" d="M215.71,164.66l33.04,50.98-60.67-3.12,27.63-47.86m-.1-3.83l-30.9,53.52,67.84,3.49-36.94-57.01h0Z"/>
  </g>
  <g>
    <polygon class="cls-7" points="199.7 105.08 262.36 119.7 213.79 161.89 199.7 105.08"/>
    <path class="cls-7" d="M201.07,106.42l59.16,13.8-45.87,39.84-13.3-53.64m-2.73-2.69l14.87,59.99,51.29-44.55-66.16-15.44h0Z"/>
  </g>
  <g>
    <polygon class="cls-7" points="157.78 69.88 216.46 43.48 203.45 106.49 157.78 69.88"/>
    <path class="cls-7" d="M215.09,45.19l-12.28,59.5-43.12-34.57,55.4-24.93m2.75-3.43l-61.95,27.87,48.22,38.66,13.74-66.53h0Z"/>
  </g>
  <g>
    <circle class="cls-7" cx="130.51" cy="150.35" r="88.5" transform="translate(-47.6 61.39) rotate(-22.5)"/>
    <path class="cls-7" d="M130.51,62.85c48.25,0,87.5,39.25,87.5,87.5s-39.25,87.5-87.5,87.5-87.5-39.25-87.5-87.5S82.26,62.85,130.51,62.85m0-2c-49.43,0-89.5,40.07-89.5,89.5s40.07,89.5,89.5,89.5,89.5-40.07,89.5-89.5-40.07-89.5-89.5-89.5h0Z"/>
  </g>
  <g>
    <path class="cls-5" d="M78.01,117.85h39c-.54,10.32-6.98,18.74-14.91,20.6-10.31,2.42-22.56-6.39-24.09-20.6Z"/>
    <path class="cls-7" d="M78.01,117.85h39c-.54,10.32-6.98,18.74-14.91,20.6-10.31,2.42-22.56-6.39-24.09-20.6Z"/>
  </g>
  <path class="cls-4" d="M145.01,117.85h36c-.56,12.81-10.21,22.12-20,20.89-8.51-1.06-15.64-9.89-16-20.89Z"/>
  <line class="cls-1" x1="115.01" y1="118.35" x2="143.01" y2="118.35"/>
  <path class="cls-3" d="M111.01,190.85c4.58,.35,39.64,2.62,52-18,1.19-1.99,2.24-4.3,3-7"/>
  <g>
    <polygon class="cls-8" points="48.67 36.54 108.34 60.61 64.15 99 48.67 36.54"/>
    <path class="cls-7" d="M50.11,38.2l56.34,22.73-41.72,36.24-14.62-58.97m-2.88-3.32l16.34,65.94,46.66-40.53-63-25.41h0Z"/>
  </g>
  <g>
    <polygon class="cls-8" points="107.59 59.5 136.85 2.2 166.12 59.5 107.59 59.5"/>
    <path class="cls-7" d="M136.85,4.4l27.63,54.1h-55.27L136.85,4.4m0-4.4l-30.9,60.5h61.8L136.85,0h0Z"/>
  </g>
  <g>
    <polygon class="cls-8" points="9.77 124.49 68.44 98.09 65.55 156.56 9.77 124.49"/>
    <path class="cls-7" d="M67.36,99.67l-2.73,55.2L11.96,124.6l55.4-24.93m2.16-3.16L7.57,124.38l58.9,33.85,3.06-61.73h0Z"/>
  </g>
  <g>
    <polygon class="cls-8" points="59.53 157.43 92.03 206.11 28.12 213.59 59.53 157.43"/>
    <path class="cls-7" d="M59.61,159.35l30.69,45.97-60.34,7.06,29.66-53.02m-.15-3.83l-33.16,59.29,67.47-7.89-34.31-51.4h0Z"/>
  </g>
  <g>
    <polygon class="cls-8" points="86.83 206.56 143.83 219.86 102.31 269.02 86.83 206.56"/>
    <path class="cls-7" d="M88.19,207.91l53.82,12.56-39.2,46.41-14.62-58.97m-2.73-2.69l16.34,65.94,43.84-51.9-60.18-14.04h0Z"/>
  </g>
  <g>
    <polygon class="cls-8" points="143.07 223.58 196.45 199.57 193.27 263.83 143.07 223.58"/>
    <path class="cls-7" d="M195.37,201.15l-3,60.68-47.4-38,50.4-22.67m2.16-3.16l-56.36,25.36,53,42.5,3.36-67.85h0Z"/>
  </g>
  <g>
    <polygon class="cls-8" points="193.97 204.09 223.23 153.4 258.23 207.39 193.97 204.09"/>
    <path class="cls-7" d="M223.28,155.31l33.04,50.98-60.67-3.12,27.63-47.86m-.1-3.83l-30.9,53.52,67.84,3.49-36.94-57.01h0Z"/>
  </g>
  <g>
    <polygon class="cls-8" points="207.27 95.73 269.93 110.35 221.36 152.54 207.27 95.73"/>
    <path class="cls-7" d="M208.64,97.07l59.16,13.8-45.87,39.84-13.3-53.64m-2.73-2.69l14.87,59.99,51.29-44.55-66.16-15.44h0Z"/>
  </g>
  <g>
    <polygon class="cls-8" points="165.35 60.53 224.03 34.13 211.02 97.14 165.35 60.53"/>
    <path class="cls-7" d="M222.66,35.84l-12.28,59.5-43.12-34.57,55.4-24.93m2.75-3.43l-61.95,27.87,48.22,38.66,13.74-66.53h0Z"/>
  </g>
  <g>
    <circle class="cls-6" cx="138.08" cy="141" r="88.5" transform="translate(-30.87 242.99) rotate(-76.72)"/>
    <path class="cls-7" d="M138.08,53.5c48.25,0,87.5,39.25,87.5,87.5s-39.25,87.5-87.5,87.5-87.5-39.25-87.5-87.5S89.83,53.5,138.08,53.5m0-2c-49.43,0-89.5,40.07-89.5,89.5s40.07,89.5,89.5,89.5,89.5-40.07,89.5-89.5-40.07-89.5-89.5-89.5h0Z"/>
  </g>
  <g>
    <path class="cls-5" d="M85.58,108.5h39c-.54,10.32-6.98,18.74-14.91,20.6-10.31,2.42-22.56-6.39-24.09-20.6Z"/>
    <path class="cls-7" d="M85.58,108.5h39c-.54,10.32-6.98,18.74-14.91,20.6-10.31,2.42-22.56-6.39-24.09-20.6Z"/>
  </g>
  <path class="cls-4" d="M152.58,108.5h36c-.56,12.81-10.21,22.12-20,20.89-8.51-1.06-15.64-9.89-16-20.89Z"/>
  <line class="cls-1" x1="122.58" y1="109" x2="150.58" y2="109"/>
  <path class="cls-2" d="M118.58,181.5c4.58,.35,39.64,2.62,52-18,1.19-1.99,2.24-4.3,3-7"/>
</svg>