<?xml version="1.0" encoding="UTF-8"?>
<svg id="Layer_1" data-name="Layer 1" xmlns="http://www.w3.org/2000/svg" viewBox="0 0 314.37 224.9">
  <defs>
    <style>
      .cls-1 {
        fill: #8dc641;
      }

      .cls-1, .cls-2, .cls-3, .cls-4 {
        stroke: #010101;
        stroke-miterlimit: 10;
        stroke-width: 2.9px;
      }

      .cls-2 {
        fill: #ed2224;
      }

      .cls-3 {
        fill: #046937;
      }

      .cls-4 {
        fill: #010101;
      }
    </style>
  </defs>
  <path class="cls-4" d="M124.54,74.75c7.41-10.44,25.85-23.74,45.88-23.69,20.52,.05,26.25,14.07,47.58,13.32,21.15-.74,25.84-14.87,44.19-14.8,19.93,.07,37.45,16.82,44.19,28.13,25.83,43.37-29.06,137.35-90.07,137.69-63.62,.35-119.76-101.23-91.77-140.65Z"/>
  <path class="cls-4" d="M106.61,28.03c-13.81,15.18-9.49,41.79,0,44.41,8.69,2.4,24.54-14.54,28.89-31.09,.76-2.88,4.8-19.57-3.4-23.69-6.81-3.42-19.08,3.32-25.49,10.36Z"/>
  <path class="cls-4" d="M13.14,82.81c7.41-10.44,25.85-23.74,45.88-23.69,20.52,.05,26.25,14.07,47.58,13.32,21.15-.74,25.84-14.87,44.19-14.8,19.93,.07,37.45,16.82,44.19,28.13,25.83,43.37-29.06,137.35-90.07,137.69-63.62,.35-119.76-101.23-91.77-140.65Z"/>
  <path class="cls-4" d="M218.01,19.98c-13.81,15.18-9.49,41.79,0,44.41,8.69,2.4,24.54-14.54,28.89-31.09,.76-2.88,4.8-19.57-3.4-23.69-6.81-3.42-19.08,3.32-25.49,10.36Z"/>
  <path class="cls-1" d="M120.23,67.51c7.41-10.44,25.85-23.74,45.88-23.69,20.52,.05,26.25,14.07,47.58,13.32,21.15-.74,25.84-14.87,44.19-14.8,19.93,.07,37.45,16.82,44.19,28.13,25.83,43.37-29.06,137.35-90.07,137.69-63.62,.35-119.76-101.23-91.77-140.65Z"/>
  <path class="cls-3" d="M102.3,20.78c-13.81,15.18-9.49,41.79,0,44.41,8.69,2.4,24.54-14.54,28.89-31.09,.76-2.88,4.8-19.57-3.4-23.69-6.81-3.42-19.08,3.32-25.49,10.36Z"/>
  <path class="cls-2" d="M8.84,75.56c7.41-10.44,25.85-23.74,45.88-23.69,20.52,.05,26.25,14.07,47.58,13.32,21.15-.74,25.84-14.87,44.19-14.8,19.93,.07,37.45,16.82,44.19,28.13,25.83,43.37-29.06,137.35-90.07,137.69-63.62,.35-119.76-101.23-91.77-140.65Z"/>
  <path class="cls-3" d="M213.7,12.73c-13.81,15.18-9.49,41.79,0,44.41,8.69,2.4,24.54-14.54,28.89-31.09,.76-2.88,4.8-19.57-3.4-23.69-6.81-3.42-19.08,3.32-25.49,10.36Z"/>
</svg>