<?xml version="1.0" encoding="UTF-8"?>
<svg id="Layer_1" data-name="Layer 1" xmlns="http://www.w3.org/2000/svg" viewBox="0 0 163.39 325.64">
  <defs>
    <style>
      .cls-1 {
        fill: #603a17;
        stroke: #412312;
      }

      .cls-1, .cls-2, .cls-3, .cls-4, .cls-5, .cls-6, .cls-7, .cls-8, .cls-9, .cls-10, .cls-11 {
        stroke-miterlimit: 10;
      }

      .cls-1, .cls-3, .cls-6, .cls-8, .cls-9, .cls-10, .cls-11 {
        stroke-width: 3px;
      }

      .cls-12, .cls-4, .cls-7, .cls-11 {
        fill: #fff;
      }

      .cls-2, .cls-4 {
        stroke-width: 5px;
      }

      .cls-2, .cls-5, .cls-6 {
        fill: #010101;
      }

      .cls-2, .cls-5, .cls-6, .cls-7, .cls-8, .cls-10, .cls-11 {
        stroke: #010101;
      }

      .cls-3 {
        fill: none;
      }

      .cls-3, .cls-9 {
        stroke: #ed2224;
      }

      .cls-4 {
        stroke: #fff;
      }

      .cls-13 {
        fill: #fbb03c;
      }

      .cls-8 {
        fill: #412312;
      }

      .cls-9, .cls-10 {
        fill: #ed2224;
      }
    </style>
  </defs>
  <g>
    <circle class="cls-6" cx="92.39" cy="252.57" r="69.5"/>
    <ellipse class="cls-6" cx="92.64" cy="144.32" rx="42.25" ry="38.75"/>
    <ellipse class="cls-6" cx="92.74" cy="71.07" rx="32.14" ry="32"/>
    <circle class="cls-6" cx="80.39" cy="63.57" r="3.5"/>
    <circle class="cls-6" cx="103.39" cy="63.57" r="3.5"/>
    <circle class="cls-5" cx="78.39" cy="61.57" r="2"/>
    <circle class="cls-5" cx="101.85" cy="61.93" r="2"/>
    <polygon class="cls-5" points="112.22 75.16 90.39 69.74 90.39 80.57 112.22 75.16"/>
    <path class="cls-5" d="M78.39,86.57c.57,.59,7.71,7.8,18,6,9.11-1.6,13.43-8.99,14-10"/>
    <circle class="cls-6" cx="93.39" cy="124.57" r="3.5"/>
    <circle class="cls-5" cx="91.39" cy="122.57" r="2"/>
    <circle class="cls-6" cx="94.39" cy="143.57" r="3.5"/>
    <circle class="cls-5" cx="92.39" cy="141.57" r="2"/>
    <line class="cls-6" x1="52.89" y1="132.07" x2="25.89" y2="120.07"/>
    <line class="cls-6" x1="132.89" y1="132.07" x2="158.89" y2="120.07"/>
    <rect class="cls-6" x="71.89" y="103.07" width="43" height="8" rx="4" ry="4"/>
    <line class="cls-6" x1="114.89" y1="103.07" x2="134.89" y2="93.07"/>
    <line class="cls-6" x1="113.85" y1="108.93" x2="133.85" y2="98.93"/>
    <path class="cls-5" d="M116.89,53.07c-6.47,3.54-12.37,3.77-21,4-7.31,.2-14.58,.32-23-3-3.42-1.35-12.12-4.78-12-9,.12-4.12,8.5-3.55,13-10,7.08-10.15-4.47-24.74,2-30.94,1.57-1.51,2.47-.85,16-2.06,14.56-1.31,15.22-2.22,17-1,7.6,5.22-2.54,23.25,7,33,4.58,4.68,10.43,4.1,11,8,.75,5.11-8.7,10.29-10,11Z"/>
    <line class="cls-2" x1="75.39" y1="29.57" x2="113.39" y2="28.57"/>
  </g>
  <circle class="cls-11" cx="71" cy="254.64" r="69.5"/>
  <ellipse class="cls-11" cx="71.25" cy="146.39" rx="42.25" ry="38.75"/>
  <ellipse class="cls-11" cx="71.36" cy="73.14" rx="32.14" ry="32"/>
  <circle class="cls-6" cx="59" cy="65.64" r="3.5"/>
  <circle class="cls-6" cx="82" cy="65.64" r="3.5"/>
  <circle class="cls-12" cx="57" cy="63.64" r="2"/>
  <circle class="cls-12" cx="80.46" cy="64" r="2"/>
  <polygon class="cls-13" points="90.83 77.22 69 71.81 69 82.64 90.83 77.22"/>
  <path class="cls-7" d="M57,88.64c.57,.59,7.71,7.8,18,6,9.11-1.6,13.43-8.99,14-10"/>
  <circle class="cls-6" cx="72" cy="126.64" r="3.5"/>
  <circle class="cls-12" cx="70" cy="124.64" r="2"/>
  <circle class="cls-6" cx="73" cy="145.64" r="3.5"/>
  <circle class="cls-12" cx="71" cy="143.64" r="2"/>
  <line class="cls-8" x1="31.5" y1="134.14" x2="4.5" y2="122.14"/>
  <line class="cls-1" x1="111.5" y1="134.14" x2="137.5" y2="122.14"/>
  <rect class="cls-10" x="50.5" y="105.14" width="43" height="8" rx="4" ry="4"/>
  <line class="cls-9" x1="93.5" y1="105.14" x2="113.5" y2="95.14"/>
  <line class="cls-3" x1="92.46" y1="111" x2="112.46" y2="101"/>
  <path class="cls-5" d="M95.5,55.14c-6.47,3.54-12.37,3.77-21,4-7.31,.2-14.58,.32-23-3-3.42-1.35-12.12-4.78-12-9,.12-4.12,8.5-3.55,13-10,7.08-10.15-4.47-24.74,2-30.94,1.57-1.51,2.47-.85,16-2.06,14.56-1.31,15.22-2.22,17-1,7.6,5.22-2.54,23.25,7,33,4.58,4.68,10.43,4.1,11,8,.75,5.11-8.7,10.29-10,11Z"/>
  <line class="cls-4" x1="54" y1="31.64" x2="92" y2="30.64"/>
</svg>